<?xml version="1.0" encoding="UTF-8"?>
<svg xmlns="http://www.w3.org/2000/svg" viewBox="0 0 139.94 132.01">
  <defs>
    <style>
      .cls-1 {
        fill: #ffd278;
      }

      .cls-1, .cls-2, .cls-3, .cls-4, .cls-5, .cls-6, .cls-7, .cls-8, .cls-9, .cls-10 {
        stroke-width: 0px;
      }

      .cls-2 {
        fill: #157759;
      }

      .cls-3 {
        fill: #b0e9ff;
      }

      .cls-4 {
        fill: #e05372;
      }

      .cls-5 {
        fill: #359fbc;
      }

      .cls-6 {
        opacity: .1;
      }

      .cls-6, .cls-10 {
        fill: #000;
      }

      .cls-7 {
        fill: #50eabe;
      }

      .cls-8 {
        fill: #891a37;
      }

      .cls-9 {
        fill: #724526;
      }

      .cls-10 {
        mix-blend-mode: overlay;
        opacity: .15;
      }

      .cls-11 {
        isolation: isolate;
      }
    </style>
  </defs>
  <g class="cls-11">
    <g id="Calque_2" data-name="Calque 2">
      <g id="Layer_3" data-name="Layer 3">
        <g>
          <g>
            <rect class="cls-9" y="64.69" width="67.32" height="67.32" rx="11.37" ry="11.37"/>
            <rect class="cls-1" x="2.63" y="67.32" width="62.07" height="62.07" rx="8.75" ry="8.75"/>
            <path class="cls-10" d="M55.94,125.01H11.37c-4.83,0-8.75-3.92-8.75-8.75v4.37c0,4.83,3.92,8.75,8.75,8.75h44.57c4.83,0,8.75-3.92,8.75-8.75v-4.37c0,4.83-3.92,8.75-8.75,8.75Z"/>
            <path class="cls-6" d="M55.94,64.69h-17.8c2.02,3.15,5.55,5.25,9.57,5.25h17.8c-2.02-3.15-5.55-5.25-9.57-5.25Z"/>
            <rect class="cls-3" x="11.37" y="76.07" width="44.57" height="44.57" rx="1.75" ry="1.75"/>
            <path class="cls-6" d="M54.19,76.07H13.12c-.97,0-1.75.78-1.75,1.75v2.62c0-.97.78-1.75,1.75-1.75h41.07c.97,0,1.75.78,1.75,1.75v-2.62c0-.97-.78-1.75-1.75-1.75Z"/>
            <path class="cls-5" d="M25.09,86.1h9.04c3.52,0,6.13.52,7.84,1.57s2.56,2.67,2.56,4.88c0,1.45-.37,2.69-1.12,3.72s-1.72,1.69-2.94,1.98v.18c1.61.43,2.77,1.13,3.49,2.13.72.99,1.08,2.28,1.08,3.86,0,2.35-.88,4.2-2.65,5.55-1.77,1.35-4.17,2.03-7.22,2.03h-10.08v-25.9ZM32.09,96.04h2.11c1,0,1.78-.21,2.33-.62.55-.41.82-1.03.82-1.84,0-1.45-1.1-2.18-3.3-2.18h-1.97v4.64ZM32.09,101.16v5.44h2.46c2.18,0,3.28-.92,3.28-2.76,0-.86-.29-1.52-.88-1.98-.58-.46-1.43-.69-2.54-.69h-2.32Z"/>
          </g>
          <g>
            <rect class="cls-9" x="72.62" y="64.69" width="67.32" height="67.32" rx="11.37" ry="11.37"/>
            <rect class="cls-1" x="75.24" y="67.32" width="62.07" height="62.07" rx="8.75" ry="8.75"/>
            <path class="cls-6" d="M83.99,64.69c-4.02,0-7.54,2.1-9.57,5.25h17.86c4.02,0,7.54-2.1,9.57-5.25h-17.86Z"/>
            <path class="cls-10" d="M128.56,125.01h-44.57c-4.83,0-8.75-3.92-8.75-8.75v4.37c0,4.83,3.92,8.75,8.75,8.75h44.57c4.83,0,8.75-3.92,8.75-8.75v-4.37c0,4.83-3.92,8.75-8.75,8.75Z"/>
            <rect class="cls-4" x="83.99" y="76.07" width="44.57" height="44.57" rx="1.75" ry="1.75" transform="translate(204.63 -7.93) rotate(90)"/>
            <path class="cls-6" d="M126.81,76.07h-41.07c-.97,0-1.75.78-1.75,1.75v2.62c0-.97.78-1.75,1.75-1.75h41.07c.97,0,1.75.78,1.75,1.75v-2.62c0-.97-.78-1.75-1.75-1.75Z"/>
            <path class="cls-8" d="M109.24,91.47c-1.67,0-2.96.68-3.9,2.05s-1.4,3.25-1.4,5.64c0,4.98,1.9,7.48,5.69,7.48,1.15,0,2.26-.16,3.33-.48,1.07-.32,2.16-.7,3.24-1.15v5.92c-2.16.96-4.61,1.44-7.33,1.44-3.91,0-6.91-1.13-8.99-3.4-2.08-2.27-3.13-5.55-3.13-9.83,0-2.68.5-5.04,1.51-7.07s2.46-3.59,4.36-4.69c1.9-1.09,4.12-1.64,6.69-1.64,2.8,0,5.47.61,8.03,1.82l-2.14,5.51c-.96-.45-1.91-.83-2.87-1.13-.96-.31-1.98-.46-3.08-.46Z"/>
          </g>
          <g>
            <rect class="cls-9" x="36.34" width="67.32" height="67.32" rx="11.37" ry="11.37"/>
            <rect class="cls-1" x="38.96" y="2.62" width="62.07" height="62.07" rx="8.75" ry="8.75"/>
            <path class="cls-10" d="M92.28,60.32h-44.57c-4.83,0-8.75-3.92-8.75-8.75v4.37c0,4.83,3.92,8.75,8.75,8.75h44.57c4.83,0,8.75-3.92,8.75-8.75v-4.37c0,4.83-3.92,8.75-8.75,8.75Z"/>
            <rect class="cls-7" x="47.71" y="11.37" width="44.57" height="44.57" rx="1.75" ry="1.75" transform="translate(103.65 -36.34) rotate(90)"/>
            <path class="cls-6" d="M90.53,11.37h-41.07c-.97,0-1.75.78-1.75,1.75v2.62c0-.97.78-1.75,1.75-1.75h41.07c.97,0,1.75.78,1.75,1.75v-2.62c0-.97-.78-1.75-1.75-1.75Z"/>
            <path class="cls-2" d="M75.57,47.31l-1.28-4.85h-8.42l-1.31,4.85h-7.69l8.45-26.01h9.34l8.56,26.01h-7.65ZM72.84,36.72l-1.12-4.25c-.26-.94-.58-2.17-.95-3.67s-.62-2.57-.74-3.22c-.11.6-.32,1.59-.63,2.98-.31,1.38-1.01,4.1-2.08,8.17h5.51Z"/>
          </g>
        </g>
      </g>
    </g>
  </g>
</svg>